<svg width="30" height="24" viewBox="0 0 30 24" fill="none" xmlns="http://www.w3.org/2000/svg">
<path d="M4.5 10.375C6.15469 10.375 7.5 8.91758 7.5 7.125C7.5 5.33242 6.15469 3.875 4.5 3.875C2.84531 3.875 1.5 5.33242 1.5 7.125C1.5 8.91758 2.84531 10.375 4.5 10.375ZM25.5 10.375C27.1547 10.375 28.5 8.91758 28.5 7.125C28.5 5.33242 27.1547 3.875 25.5 3.875C23.8453 3.875 22.5 5.33242 22.5 7.125C22.5 8.91758 23.8453 10.375 25.5 10.375ZM27 12H24C23.175 12 22.4297 12.3605 21.8859 12.9445C23.775 14.0668 25.1156 16.093 25.4062 18.5H28.5C29.3297 18.5 30 17.7738 30 16.875V15.25C30 13.4574 28.6547 12 27 12ZM15 12C17.9016 12 20.25 9.45586 20.25 6.3125C20.25 3.16914 17.9016 0.625 15 0.625C12.0984 0.625 9.75 3.16914 9.75 6.3125C9.75 9.45586 12.0984 12 15 12ZM18.6 13.625H18.2109C17.2359 14.1328 16.1531 14.4375 15 14.4375C13.8469 14.4375 12.7688 14.1328 11.7891 13.625H11.4C8.41875 13.625 6 16.2453 6 19.475V20.9375C6 22.2832 7.00781 23.375 8.25 23.375H21.75C22.9922 23.375 24 22.2832 24 20.9375V19.475C24 16.2453 21.5812 13.625 18.6 13.625ZM8.11406 12.9445C7.57031 12.3605 6.825 12 6 12H3C1.34531 12 0 13.4574 0 15.25V16.875C0 17.7738 0.670312 18.5 1.5 18.5H4.58906C4.88438 16.093 6.225 14.0668 8.11406 12.9445Z" fill="#7F2736"/>
</svg>
